<?xml version="1.0" encoding="utf-8"?>
<!-- Generator: Adobe Illustrator 21.1.0, SVG Export Plug-In . SVG Version: 6.00 Build 0)  -->
<svg version="1.1" id="Capa_1" xmlns="http://www.w3.org/2000/svg" xmlns:xlink="http://www.w3.org/1999/xlink" x="0px" y="0px"
	 viewBox="0 0 1200 1200" enable-background="new 0 0 1200 1200" xml:space="preserve">
<g>
	<g>
		<g>
			<path fill="#A2CE63" d="M898.529,750.92c28.469,11.893,55.136,24.655,73.408,51.354c55.216,80.684,134.808-6.867,82.791-49.124
				c-17.27-14.028-40.733-9.754-59.921-18.718c-12.26-5.727-21.525-15.895-30.995-25.438c-1.246-1.256-3.513-3.631-6.404-6.814"/>
			<path fill="#122838" d="M1023.131,845.176c-15.623,0-38.377-6.576-59.398-37.289c-16.775-24.511-42.228-36.594-69.034-47.797
				l7.663-18.342c29.665,12.394,57.938,25.921,77.779,54.911c14.451,21.119,31.849,31.098,49.008,28.121
				c14.639-2.553,27.558-14.684,31.417-29.5c1.973-7.576,3.024-22.123-12.105-34.413c-7.977-6.48-18.502-8.193-29.643-10.006
				c-9.305-1.516-18.925-3.08-28.219-7.422c-12.646-5.911-21.983-15.399-31.013-24.575l-2.828-2.867
				c-1.685-1.701-4.19-4.364-6.704-7.128l14.709-13.375c3.459,3.803,5.55,5.939,6.11,6.505l2.884,2.923
				c8.154,8.285,15.856,16.111,25.256,20.506c6.794,3.173,14.664,4.454,23,5.81c12.604,2.052,26.893,4.378,38.982,14.196
				c17.361,14.104,24.214,34.097,18.81,54.857c-5.85,22.454-24.833,40.165-47.239,44.075
				C1029.857,844.837,1026.676,845.176,1023.131,845.176z"/>
		</g>
		<g>
			<g>
				<path fill="#DFE9A5" d="M1051.812,791.885c-1.474-22.252-13.489,6.138-17.5,8.41c-4.01,2.272-11.245,13.385-28.432,3.328
					c-17.187-10.058-8.566,19.062,17.539,18.198C1049.525,820.956,1051.812,791.885,1051.812,791.885z"/>
			</g>
		</g>
	</g>
	<g>
		<g>
			<path fill="#A2CE63" d="M232.66,613.728c-29.706,8.334-58.538,14.87-89.433,5.266c-93.361-29.023-101.468,89.021-34.455,89.891
				c22.248,0.288,37.997-17.621,58.608-22.495c13.169-3.115,26.743-0.888,40.091,0.722c1.756,0.212,5.008,0.668,9.25,1.371"/>
			<path fill="#122838" d="M109.299,718.83c-0.219,0-0.437-0.003-0.656-0.006c-22.364-0.289-40.142-11.719-48.784-31.353
				c-9.342-21.24-5.443-46.908,9.706-63.874c9.897-11.082,33.006-27.65,76.613-14.096c28.368,8.826,55.827,2.503,83.797-5.345
				l5.37,19.143c-30.955,8.686-61.517,15.612-95.07,5.188c-24.444-7.604-44.291-4.636-55.88,8.35
				c-9.897,11.085-12.504,28.614-6.337,42.626c3.153,7.167,11.352,19.23,30.843,19.483c0.129,0,0.258,0.003,0.387,0.003
				c10.124,0,19.328-5.124,29.068-10.547c8.238-4.585,16.755-9.325,26.736-11.685c13.602-3.22,26.829-1.561,39.615,0.039
				l3.955,0.488c2.346,0.28,5.97,0.818,9.684,1.432l-3.251,19.614c-4.047-0.673-7.201-1.116-8.804-1.309l-4.05-0.499
				c-11.545-1.449-22.462-2.806-32.575-0.42c-7.296,1.727-14.264,5.606-21.641,9.712
				C137.022,711.898,124.571,718.827,109.299,718.83z"/>
		</g>
		<g>
			<g>
				<path fill="#DFE9A5" d="M87.028,676.697c14.961,16.538,6.771-13.183,8.507-17.452c1.736-4.27,0.515-17.474,20.234-20.249
					c19.719-2.775-5.108-20.265-25.046-3.391S87.028,676.697,87.028,676.697z"/>
			</g>
		</g>
	</g>
	<g>
		<g>
			<path fill="#A2CE63" d="M587.856,973.213c8.946,29.528,16.075,58.219,7.111,89.305c-27.09,93.94,91.096,99.609,90.583,32.592
				c-0.172-22.249-18.401-37.625-23.7-58.131c-3.386-13.102-1.44-26.719-0.106-40.097c0.176-1.76,0.565-5.021,1.18-9.276"/>
			<path fill="#122838" d="M639.749,1150c-14.048,0-27.975-4.779-38.662-13.93c-11.284-9.664-28.326-32.429-15.674-76.307
				c8.232-28.536,1.354-55.861-7.069-83.668l19.026-5.763c9.322,30.772,16.882,61.189,7.144,94.941
				c-7.091,24.595-3.717,44.375,9.504,55.695c11.287,9.67,28.864,11.912,42.749,5.457c7.102-3.299,18.992-11.747,18.844-31.241
				c-0.081-10.272-5.457-19.48-11.15-29.228c-4.754-8.142-9.67-16.562-12.237-26.493c-3.495-13.524-2.116-26.778-0.779-39.596
				l0.406-3.974c0.241-2.391,0.701-6.018,1.233-9.706l19.676,2.836c-0.732,5.073-1.048,8.055-1.127,8.849l-0.418,4.056
				c-1.205,11.573-2.343,22.507,0.258,32.563c1.875,7.259,5.897,14.149,10.155,21.442c6.441,11.026,13.74,23.527,13.86,39.097
				c0.171,22.367-10.886,40.381-30.341,49.423C657.124,1148.184,648.412,1150,639.749,1150z"/>
		</g>
		<g>
			<g>
				<path fill="#DFE9A5" d="M653.817,1117.514c16.225-15.299-13.32-6.498-17.624-8.145c-4.305-1.647-17.481-0.154-20.662-19.812
					c-3.181-19.658-20.155,5.525-2.874,25.11C629.938,1134.253,653.817,1117.514,653.817,1117.514z"/>
			</g>
		</g>
	</g>
	<g>
		<g>
			<path fill="#A2CE63" d="M709.421,919.247c31.895,32.081,60.863,64.327,70.639,110.746
				c29.542,140.274,186.476,66.315,139.712-20.108c-15.527-28.691-49.709-36.061-70.676-58.969
				c-13.397-14.635-20.244-33.608-27.719-51.847c-0.983-2.4-2.723-6.89-4.853-12.822"/>
			<path fill="#122838" d="M856.574,1118.356c-5.69,0-11.382-0.605-16.982-1.858c-20.172-4.507-55.995-21.475-69.258-84.455
				c-9.235-43.853-37.418-75.063-67.961-105.788l14.098-14.014c32.726,32.919,62.96,66.54,73.314,115.704
				c8.131,38.609,27.361,63.168,54.143,69.152c22.978,5.135,49.218-4.762,63.815-24.068c7.596-10.045,18.123-30.994,3.288-58.414
				c-7.758-14.334-21.562-22.874-36.179-31.913c-11.489-7.105-23.37-14.454-33.088-25.074
				c-13.266-14.491-20.436-32.205-27.37-49.336l-2.217-5.454c-0.499-1.222-2.324-5.76-5.009-13.229l18.712-6.721
				c2.548,7.097,4.238,11.298,4.698,12.419l2.245,5.527c6.561,16.212,12.759,31.524,23.606,43.371
				c7.856,8.588,18.07,14.903,28.881,21.59c16.186,10.012,32.925,20.366,43.206,39.358c14.704,27.176,12.913,56.287-4.913,79.867
				C907.693,1106.06,882.192,1118.356,856.574,1118.356z"/>
		</g>
		<g>
			<g>
				<path fill="#DFE9A5" d="M894.095,1060.723c10.486-30.971-21.717,0.749-28.424,1.577c-6.707,0.828-22.742,11.826-40.383-11.44
					c-17.642-23.266-22.297,21.019,13.552,34.491C874.689,1098.823,894.095,1060.723,894.095,1060.723z"/>
			</g>
		</g>
	</g>
	<g>
		<g>
			<path fill="#A2CE63" d="M636.703,302.319c-14.364-42.897-26.031-84.644-14.213-130.585
				c35.716-138.831-137.741-142.121-134.144-43.922c1.196,32.602,28.567,54.363,37.203,84.192
				c5.519,19.058,3.244,39.099,1.857,58.763c-0.183,2.587-0.614,7.383-1.335,13.645"/>
			<path fill="#122838" d="M627.276,305.474c-14.737-44.013-26.933-87.553-14.415-136.216c9.832-38.211,3.487-68.751-17.865-85.991
				c-18.317-14.791-46.222-17.557-67.871-6.721c-11.262,5.637-29.985,19.746-28.844,50.9c0.597,16.29,9.185,30.066,18.277,44.652
				c7.147,11.461,14.536,23.314,18.541,37.141c5.463,18.869,4.033,37.92,2.654,56.346l-0.432,5.883
				c-0.244,3.439-0.757,8.703-1.376,14.079l-19.749-2.27c0.869-7.562,1.211-12.021,1.292-13.207l0.44-5.97
				c1.306-17.436,2.539-33.903-1.926-49.333c-3.237-11.178-9.589-21.363-16.315-32.151c-10.071-16.153-20.483-32.855-21.274-54.44
				C477.282,97.298,491.795,72,518.226,58.768c28.827-14.426,64.695-10.799,89.257,9.034c16.083,12.986,40.669,44.075,24.634,106.41
				c-11.167,43.408,0.255,83.872,14.011,124.951L627.276,305.474z"/>
		</g>
		<g>
			<g>
				<path fill="#DFE9A5" d="M533.903,93.628c-23.131,23.111,19.797,8.958,26.176,11.189c6.379,2.232,25.627-0.516,31.124,28.16
					s29.305-8.954,3.146-36.924C568.19,68.082,533.903,93.628,533.903,93.628z"/>
			</g>
		</g>
	</g>
	<g>
		<g>
			<path fill="#A2CE63" d="M896.176,588.164c42.297-16.045,83.552-29.349,129.923-19.352
				c140.131,30.213,136.579-143.238,38.598-135.771c-32.529,2.481-53.194,30.689-82.66,40.494
				c-18.826,6.266-38.941,4.784-58.644,4.173c-2.592-0.08-7.401-0.323-13.687-0.796"/>
			<path fill="#122838" d="M899.702,597.458l-7.052-18.588c43.408-16.461,86.443-30.358,135.543-19.774
				c38.57,8.319,68.835,0.774,85.221-21.246c14.056-18.886,15.716-46.883,4.039-68.081c-6.079-11.029-20.901-29.166-52.001-26.818
				c-16.251,1.239-29.677,10.365-43.89,20.026c-11.172,7.593-22.725,15.444-36.384,19.99c-18.633,6.194-37.724,5.524-56.186,4.877
				l-5.903-0.199c-3.453-0.109-8.734-0.418-14.129-0.824l1.497-19.822c7.59,0.572,12.061,0.737,13.249,0.774l5.987,0.205
				c17.462,0.614,33.971,1.197,49.207-3.874c11.043-3.675,20.974-10.424,31.487-17.571c15.741-10.698,32.02-21.761,53.554-23.404
				c30.798-2.377,56.66,11.153,70.923,37.045c15.556,28.236,13.344,64.222-5.502,89.545c-12.341,16.582-42.449,42.376-105.356,28.81
				C980.194,569.082,940.208,582.093,899.702,597.458z"/>
		</g>
		<g>
			<g>
				<path fill="#DFE9A5" d="M1100.651,477.214c-24.006-22.201-8.17,20.135-10.149,26.597c-1.978,6.462,1.527,25.587-26.91,32.211
					s10.103,28.929,37.02,1.687C1127.529,510.467,1100.651,477.214,1100.651,477.214z"/>
			</g>
		</g>
	</g>
	<g>
		<g>
			<path fill="#A2CE63" d="M337.695,832.895c-20.939,40.101-42.921,77.46-84.213,100.81
				c-124.782,70.562-6.846,197.798,61.399,127.098c22.656-23.474,19.349-58.284,34.847-85.194
				c9.901-17.194,25.916-29.456,41.043-42.094c1.99-1.663,5.745-4.678,10.756-8.502"/>
			<path fill="#122838" d="M269.053,1091.513c-8.125,0-16.397-1.432-24.634-4.35c-30.386-10.757-52.651-39.114-55.401-70.562
				c-1.799-20.593,3.548-59.869,59.572-91.549c39.018-22.064,60.244-58.358,80.293-96.757l17.624,9.199
				c-21.484,41.146-44.389,80.128-88.13,104.863c-34.346,19.421-51.942,45.173-49.554,72.512
				c2.052,23.454,19.418,45.476,42.233,53.554c11.867,4.207,35.024,7.907,56.674-14.524c11.321-11.73,15.287-27.471,19.488-44.134
				c3.299-13.098,6.713-26.641,13.897-39.117c9.804-17.027,24.525-29.217,38.758-41.003l4.527-3.761
				c1.003-0.835,4.765-3.944,11.099-8.776l12.058,15.808c-6.009,4.585-9.488,7.456-10.413,8.226l-4.591,3.815
				c-13.47,11.155-26.193,21.691-34.212,35.613c-5.808,10.085-8.739,21.725-11.848,34.052c-4.65,18.457-9.46,37.541-24.458,53.083
				C306.919,1083.365,288.412,1091.513,269.053,1091.513z"/>
		</g>
		<g>
			<g>
				<path fill="#DFE9A5" d="M258.659,1051.694c32.692,0.633-7.278-20.474-10.095-26.618c-2.817-6.143-18.147-18.103-1.302-41.952
					c16.845-23.849-26.775-14.9-28.781,23.344C216.476,1044.713,258.659,1051.694,258.659,1051.694z"/>
			</g>
		</g>
	</g>
	<g>
		<g>
			<path fill="#A2CE63" d="M301.424,442.412c-39.432-12.887-76.542-27.13-103.895-60.955
				c-82.658-102.216-179.943,23.663-105.693,74.72c24.652,16.949,55.639,8.703,82.319,18.66c17.047,6.361,30.555,18.995,44.27,30.77
				c1.804,1.549,5.098,4.49,9.314,8.445"/>
			<path fill="#122838" d="M220.936,521.302c-5.062-4.754-8.159-7.444-8.986-8.154l-4.137-3.574
				c-12.069-10.452-23.468-20.323-37.135-25.425c-9.888-3.691-20.808-4.583-32.367-5.527c-17.504-1.429-35.605-2.909-52.105-14.255
				c-23.625-16.245-34.436-41.062-29.66-68.087c5.199-29.424,27.731-54.106,56.065-61.419c18.541-4.779,55.239-5.908,92.648,40.344
				c25.702,31.784,61.615,45.457,99.254,57.758l-6.177,18.897c-40.582-13.263-79.421-28.149-108.537-64.154
				c-22.535-27.866-48.189-39.798-72.218-33.595c-20.604,5.317-37.651,24.079-41.46,45.628
				c-1.976,11.178-1.827,32.311,21.346,48.248c12.136,8.344,26.868,9.547,42.463,10.822c12.4,1.012,25.226,2.06,37.698,6.713
				c17.024,6.354,30.33,17.879,43.2,29.026l4.07,3.515c2.422,2.08,6.026,5.348,9.642,8.742L220.936,521.302z"/>
		</g>
		<g>
			<g>
				<path fill="#DFE9A5" d="M91.589,403.949c4.362,29.666,17.421-9.673,22.552-13.148c5.131-3.475,13.635-19.146,37.75-7.51
					c24.114,11.636,9.436-26.468-25.459-22.509S91.589,403.949,91.589,403.949z"/>
			</g>
		</g>
	</g>
	<g>
		<g>
			
				<ellipse transform="matrix(0.0142 -0.9999 0.9999 0.0142 -38.2209 1210.1887)" fill="#A2CE63" cx="594.626" cy="624.478" rx="399.403" ry="399.403"/>
		</g>
	</g>
	<g>
		<g>
			<path fill="#D8E6A1" d="M560.031,237.883c-32.83,1.708-80.002,15.229-99.4,30.577c-18.922,14.971-8.849,21.546,25.176,13.923
				c49.995-11.202,86.898-31.822,171.881-8.686c69.533,18.93,29.767-38.137-54.281-37.322
				C585.11,236.552,577.457,236.977,560.031,237.883z"/>
		</g>
	</g>
	<g>
		<g>
			<path fill="#D8E6A1" d="M368.658,320.683c-12.055,3.922-16.441,6.449-32.366,24.906
				c-86.697,100.484-104.941,180.987-94.716,201.888c15.301,31.277,61.177-128.489,116.055-181.376
				C386.051,338.713,383.279,315.926,368.658,320.683z"/>
		</g>
	</g>
	<g>
		<g>
			<path fill="#83A050" d="M969.898,505.916c0,3.49,2.828,6.318,6.318,6.318c0.586,0,1.141-0.105,1.679-0.255
				c-1.181-4.031-2.427-8.034-3.732-12.012C971.687,500.823,969.898,503.149,969.898,505.916z"/>
		</g>
		<g>
			<circle fill="#83A050" cx="976.216" cy="534.393" r="6.318"/>
		</g>
		<g>
			<circle fill="#83A050" cx="976.216" cy="562.87" r="6.318"/>
		</g>
		<g>
			<circle fill="#83A050" cx="976.216" cy="591.347" r="6.318"/>
		</g>
		<g>
			<circle fill="#83A050" cx="976.216" cy="619.824" r="6.318"/>
		</g>
		<g>
			<circle fill="#83A050" cx="976.216" cy="648.301" r="6.318"/>
		</g>
		<g>
			<circle fill="#83A050" cx="976.216" cy="676.778" r="6.318"/>
		</g>
		<g>
			<circle fill="#83A050" cx="976.216" cy="705.255" r="6.318"/>
		</g>
		<g>
			<path fill="#83A050" d="M969.898,733.732c0,3.49,2.828,6.318,6.318,6.318c0.292,0,0.57-0.048,0.851-0.086
				c1.106-3.669,2.16-7.362,3.162-11.075c-1.093-0.908-2.479-1.475-4.012-1.475C972.727,727.414,969.898,730.242,969.898,733.732z"
				/>
		</g>
		<g>
			<path fill="#83A050" d="M970.784,759.033c-0.378,0.644-0.65,1.352-0.779,2.115C970.261,760.441,970.531,759.74,970.784,759.033z"
				/>
		</g>
		<g>
			<path fill="#83A050" d="M941.42,448.962c0,3.489,2.829,6.318,6.319,6.318c3.159,0,5.754-2.326,6.221-5.354
				c-1.075-2.21-2.23-4.373-3.345-6.56c-0.866-0.446-1.834-0.722-2.876-0.722C944.25,442.644,941.42,445.472,941.42,448.962z"/>
		</g>
		<g>
			<circle fill="#83A050" cx="947.739" cy="477.439" r="6.318"/>
		</g>
		<g>
			<circle fill="#83A050" cx="947.739" cy="505.916" r="6.318"/>
		</g>
		<g>
			<circle fill="#83A050" cx="947.739" cy="534.393" r="6.318"/>
		</g>
		<g>
			<circle fill="#83A050" cx="947.739" cy="562.87" r="6.318"/>
		</g>
		<g>
			<circle fill="#83A050" cx="947.739" cy="591.347" r="6.318"/>
		</g>
		<g>
			<circle fill="#83A050" cx="947.739" cy="619.824" r="6.318"/>
		</g>
		<g>
			<circle fill="#83A050" cx="947.739" cy="648.301" r="6.318"/>
		</g>
		<g>
			<circle fill="#83A050" cx="947.739" cy="676.778" r="6.318"/>
		</g>
		<g>
			<circle fill="#83A050" cx="947.739" cy="705.255" r="6.318"/>
		</g>
		<g>
			<circle fill="#83A050" cx="947.739" cy="733.732" r="6.318"/>
		</g>
		<g>
			<circle fill="#83A050" cx="947.739" cy="762.209" r="6.318"/>
		</g>
		<g>
			<circle fill="#83A050" cx="947.739" cy="790.686" r="6.318"/>
		</g>
		<g>
			<path fill="#83A050" d="M941.42,819.163c0,0.919,0.206,1.786,0.559,2.574c1.656-2.912,3.281-5.845,4.866-8.802
				C943.783,813.372,941.42,815.979,941.42,819.163z"/>
		</g>
		<g>
			<path fill="#83A050" d="M912.943,392.008c0,3.489,2.829,6.318,6.319,6.318c1.401,0,2.684-0.471,3.732-1.244
				c-2.398-3.455-4.854-6.864-7.356-10.238C914.013,387.988,912.943,389.87,912.943,392.008z"/>
		</g>
		<g>
			<circle fill="#83A050" cx="919.262" cy="420.485" r="6.318"/>
		</g>
		<g>
			<circle fill="#83A050" cx="919.262" cy="448.962" r="6.318"/>
		</g>
		<g>
			<circle fill="#83A050" cx="919.262" cy="477.439" r="6.318"/>
		</g>
		<g>
			<circle fill="#83A050" cx="919.262" cy="505.916" r="6.318"/>
		</g>
		<g>
			<circle fill="#83A050" cx="919.262" cy="534.393" r="6.318"/>
		</g>
		<g>
			<circle fill="#83A050" cx="919.262" cy="562.87" r="6.318"/>
		</g>
		<g>
			<circle fill="#83A050" cx="919.262" cy="591.347" r="6.318"/>
		</g>
		<g>
			<circle fill="#83A050" cx="919.262" cy="619.824" r="6.318"/>
		</g>
		<g>
			<circle fill="#83A050" cx="919.262" cy="648.301" r="6.318"/>
		</g>
		<g>
			<circle fill="#83A050" cx="919.262" cy="676.778" r="6.318"/>
		</g>
		<g>
			<circle fill="#83A050" cx="919.262" cy="705.255" r="6.318"/>
		</g>
		<g>
			<circle fill="#83A050" cx="919.262" cy="733.732" r="6.318"/>
		</g>
		<g>
			<circle fill="#83A050" cx="919.262" cy="762.209" r="6.318"/>
		</g>
		<g>
			<circle fill="#83A050" cx="919.262" cy="790.686" r="6.318"/>
		</g>
		<g>
			<circle fill="#83A050" cx="919.262" cy="819.163" r="6.318"/>
		</g>
		<g>
			<path fill="#83A050" d="M919.262,841.322c-3.49,0-6.319,2.829-6.319,6.318c0,3.489,2.829,6.318,6.319,6.318
				c0.992,0,1.92-0.249,2.755-0.658c1.187-1.695,2.347-3.41,3.509-5.125c0.015-0.179,0.053-0.352,0.053-0.535
				C925.58,844.151,922.752,841.322,919.262,841.322z"/>
		</g>
		<g>
			<path fill="#83A050" d="M884.466,363.531c0,3.49,2.829,6.318,6.319,6.318c3.439,0,6.224-2.752,6.304-6.173
				c-1.867-2.164-3.785-4.28-5.698-6.402c-0.202-0.02-0.398-0.061-0.605-0.061C887.296,357.212,884.466,360.041,884.466,363.531z"/>
		</g>
		<g>
			<circle fill="#83A050" cx="890.785" cy="392.008" r="6.318"/>
		</g>
		<g>
			<circle fill="#83A050" cx="890.785" cy="420.485" r="6.318"/>
		</g>
		<g>
			<circle fill="#83A050" cx="890.785" cy="448.962" r="6.318"/>
		</g>
		<g>
			<circle fill="#83A050" cx="890.785" cy="477.439" r="6.318"/>
		</g>
		<g>
			<path fill="#83A050" d="M890.785,512.234c3.49,0,6.318-2.829,6.318-6.318c0-3.49-2.828-6.318-6.318-6.318
				c-1.679,0-3.195,0.666-4.326,1.733c0.645,3.455,1.24,6.911,1.795,10.368C889.029,512.039,889.883,512.234,890.785,512.234z"/>
		</g>
		<g>
			<path fill="#83A050" d="M890.785,528.075c-0.078,0-0.15,0.02-0.227,0.023c0.499,4.172,0.925,8.34,1.295,12.506
				c2.978-0.51,5.25-3.087,5.25-6.211C897.103,530.904,894.275,528.075,890.785,528.075z"/>
		</g>
		<g>
			<path fill="#83A050" d="M892.986,556.968c0.191,3.888,0.324,7.77,0.405,11.645c2.185-0.994,3.712-3.185,3.712-5.743
				C897.103,560.157,895.385,557.863,892.986,556.968z"/>
		</g>
		<g>
			<path fill="#83A050" d="M893.391,585.605c-0.08,3.891-0.21,7.773-0.401,11.643c2.398-0.897,4.113-3.19,4.113-5.901
				C897.103,588.789,895.575,586.599,893.391,585.605z"/>
		</g>
		<g>
			<path fill="#83A050" d="M897.103,619.824c0-3.126-2.276-5.704-5.257-6.211c-0.376,4.183-0.797,8.356-1.301,12.505
				c0.081,0.003,0.157,0.024,0.24,0.024C894.275,626.142,897.103,623.314,897.103,619.824z"/>
		</g>
		<g>
			<path fill="#83A050" d="M897.103,648.301c0-3.49-2.828-6.318-6.318-6.318c-0.928,0-1.802,0.211-2.595,0.57
				c-0.563,3.436-1.159,6.862-1.811,10.268c1.139,1.11,2.691,1.799,4.406,1.799C894.275,654.619,897.103,651.79,897.103,648.301z"/>
		</g>
		<g>
			<circle fill="#83A050" cx="890.785" cy="676.778" r="6.318"/>
		</g>
		<g>
			<circle fill="#83A050" cx="890.785" cy="705.255" r="6.318"/>
		</g>
		<g>
			<circle fill="#83A050" cx="890.785" cy="733.732" r="6.318"/>
		</g>
		<g>
			<circle fill="#83A050" cx="890.785" cy="762.209" r="6.318"/>
		</g>
		<g>
			<circle fill="#83A050" cx="890.785" cy="790.686" r="6.318"/>
		</g>
		<g>
			<circle fill="#83A050" cx="890.785" cy="819.163" r="6.318"/>
		</g>
		<g>
			<circle fill="#83A050" cx="890.785" cy="847.64" r="6.318"/>
		</g>
		<g>
			<circle fill="#83A050" cx="890.785" cy="876.117" r="6.318"/>
		</g>
		<g>
			<path fill="#83A050" d="M855.989,335.054c0,3.489,2.829,6.318,6.319,6.318c3.49,0,6.318-2.829,6.318-6.318
				c0-0.411-0.046-0.81-0.12-1.199c-1.791-1.688-3.574-3.383-5.396-5.039c-0.265-0.034-0.527-0.081-0.802-0.081
				C858.819,328.736,855.989,331.564,855.989,335.054z"/>
		</g>
		<g>
			<circle fill="#83A050" cx="862.308" cy="363.531" r="6.318"/>
		</g>
		<g>
			<circle fill="#83A050" cx="862.308" cy="392.008" r="6.318"/>
		</g>
		<g>
			<path fill="#83A050" d="M868.626,420.485c0-3.489-2.828-6.318-6.318-6.318c-0.736,0-1.431,0.15-2.087,0.381
				c1.648,3.869,3.237,7.75,4.759,11.643C867.129,425.182,868.626,423.015,868.626,420.485z"/>
		</g>
		<g>
			<path fill="#83A050" d="M862.308,740.05c3.49,0,6.318-2.829,6.318-6.318c0-2.921-1.993-5.355-4.685-6.078
				c-1.609,3.839-3.293,7.632-5.026,11.393C859.897,739.675,861.055,740.05,862.308,740.05z"/>
		</g>
		<g>
			<circle fill="#83A050" cx="862.308" cy="762.209" r="6.318"/>
		</g>
		<g>
			<circle fill="#83A050" cx="862.308" cy="790.686" r="6.318"/>
		</g>
		<g>
			<circle fill="#83A050" cx="862.308" cy="819.163" r="6.318"/>
		</g>
		<g>
			<circle fill="#83A050" cx="862.308" cy="847.64" r="6.318"/>
		</g>
		<g>
			<circle fill="#83A050" cx="862.308" cy="876.117" r="6.318"/>
		</g>
		<g>
			<circle fill="#83A050" cx="862.308" cy="904.594" r="6.318"/>
		</g>
		<g>
			<path fill="#83A050" d="M827.512,306.577c0,3.49,2.829,6.318,6.319,6.318c2.601,0,4.831-1.574,5.799-3.82
				c-3.218-2.504-6.451-4.989-9.747-7.396C828.449,302.838,827.512,304.589,827.512,306.577z"/>
		</g>
		<g>
			<circle fill="#83A050" cx="833.831" cy="335.054" r="6.318"/>
		</g>
		<g>
			<path fill="#83A050" d="M840.149,363.531c0-3.49-2.828-6.318-6.318-6.318c-1.1,0-2.119,0.306-3.02,0.801
				c2.223,3.579,4.385,7.177,6.484,10.794C839.011,367.678,840.149,365.74,840.149,363.531z"/>
		</g>
		<g>
			<path fill="#83A050" d="M833.831,797.004c3.49,0,6.318-2.829,6.318-6.318c0-3.489-2.828-6.318-6.318-6.318
				c-0.045,0-0.084,0.012-0.128,0.013c-1.891,2.851-3.819,5.669-5.793,8.448C828.792,795.259,831.097,797.004,833.831,797.004z"/>
		</g>
		<g>
			<circle fill="#83A050" cx="833.831" cy="819.163" r="6.318"/>
		</g>
		<g>
			<circle fill="#83A050" cx="833.831" cy="847.64" r="6.318"/>
		</g>
		<g>
			<circle fill="#83A050" cx="833.831" cy="876.117" r="6.318"/>
		</g>
		<g>
			<circle fill="#83A050" cx="833.831" cy="904.594" r="6.318"/>
		</g>
		<g>
			<circle fill="#83A050" cx="833.831" cy="933.071" r="6.318"/>
		</g>
		<g>
			<path fill="#83A050" d="M803.862,284.222c-1.043-0.642-2.112-1.245-3.16-1.878C801.534,283.256,802.622,283.92,803.862,284.222z"
				/>
		</g>
		<g>
			<circle fill="#83A050" cx="805.354" cy="306.577" r="6.318"/>
		</g>
		<g>
			<path fill="#83A050" d="M805.355,825.481c3.49,0,6.318-2.829,6.318-6.318c0-1.515-0.555-2.887-1.445-3.975
				c-2.73,3.105-5.536,6.174-8.43,9.196C802.811,825.075,804.034,825.481,805.355,825.481z"/>
		</g>
		<g>
			<circle fill="#83A050" cx="805.354" cy="847.64" r="6.318"/>
		</g>
		<g>
			<circle fill="#83A050" cx="805.354" cy="876.117" r="6.318"/>
		</g>
		<g>
			<circle fill="#83A050" cx="805.354" cy="904.594" r="6.318"/>
		</g>
		<g>
			<circle fill="#83A050" cx="805.354" cy="933.071" r="6.318"/>
		</g>
		<g>
			<path fill="#83A050" d="M805.355,955.23c-3.49,0-6.319,2.829-6.319,6.318c0,1.912,0.867,3.606,2.21,4.764
				c3.429-2.078,6.831-4.198,10.194-6.375C810.723,957.233,808.284,955.23,805.355,955.23z"/>
		</g>
		<g>
			<circle fill="#83A050" cx="776.877" cy="278.1" r="6.318"/>
		</g>
		<g>
			<path fill="#83A050" d="M776.876,853.958c3.49,0,6.319-2.829,6.319-6.318c0-1.552-0.582-2.956-1.511-4.055
				c-3.139,2.749-6.343,5.454-9.615,8.111C773.228,853.068,774.939,853.958,776.876,853.958z"/>
		</g>
		<g>
			<circle fill="#83A050" cx="776.877" cy="876.117" r="6.318"/>
		</g>
		<g>
			<circle fill="#83A050" cx="776.877" cy="904.594" r="6.318"/>
		</g>
		<g>
			<circle fill="#83A050" cx="776.877" cy="933.071" r="6.318"/>
		</g>
		<g>
			<circle fill="#83A050" cx="776.877" cy="961.548" r="6.318"/>
		</g>
		<g>
			<path fill="#83A050" d="M743.818,253.952c1.152,1.219,2.772,1.99,4.581,1.99c0.095,0,0.184-0.024,0.276-0.028
				C747.067,255.24,745.438,254.604,743.818,253.952z"/>
		</g>
		<g>
			<path fill="#83A050" d="M748.399,882.436c3.49,0,6.319-2.829,6.319-6.318c0-3.49-2.83-6.318-6.319-6.318
				c-0.282,0-0.552,0.047-0.824,0.083c-1.533,1.042-3.075,2.075-4.629,3.097c-0.535,0.928-0.865,1.989-0.865,3.138
				C742.082,879.607,744.91,882.436,748.399,882.436z"/>
		</g>
		<g>
			<circle fill="#83A050" cx="748.4" cy="904.594" r="6.318"/>
		</g>
		<g>
			<circle fill="#83A050" cx="748.4" cy="933.071" r="6.318"/>
		</g>
		<g>
			<circle fill="#83A050" cx="748.4" cy="961.548" r="6.318"/>
		</g>
		<g>
			<path fill="#83A050" d="M748.399,983.707c-3.49,0-6.318,2.829-6.318,6.318c0,1.949,0.901,3.669,2.287,4.828
				c3.459-1.4,6.891-2.851,10.3-4.344c0.013-0.162,0.049-0.318,0.049-0.484C754.718,986.536,751.889,983.707,748.399,983.707z"/>
		</g>
		<g>
			<circle fill="#83A050" cx="719.923" cy="904.594" r="6.318"/>
		</g>
		<g>
			<circle fill="#83A050" cx="719.923" cy="933.071" r="6.318"/>
		</g>
		<g>
			<circle fill="#83A050" cx="719.923" cy="961.548" r="6.318"/>
		</g>
		<g>
			<circle fill="#83A050" cx="719.923" cy="990.025" r="6.318"/>
		</g>
		<g>
			<path fill="#83A050" d="M691.445,910.913c3.49,0,6.319-2.829,6.319-6.318c0-1.994-0.942-3.751-2.385-4.909
				c-3.382,1.604-6.79,3.17-10.229,4.686c-0.003,0.076-0.022,0.146-0.022,0.222C685.128,908.084,687.956,910.913,691.445,910.913z"
				/>
		</g>
		<g>
			<circle fill="#83A050" cx="691.446" cy="933.071" r="6.318"/>
		</g>
		<g>
			<circle fill="#83A050" cx="691.446" cy="961.548" r="6.318"/>
		</g>
		<g>
			<circle fill="#83A050" cx="691.446" cy="990.025" r="6.318"/>
		</g>
		<g>
			<path fill="#83A050" d="M689.122,1012.638c0.476-0.116,0.947-0.246,1.424-0.364
				C690.051,1012.346,689.572,1012.46,689.122,1012.638z"/>
		</g>
		<g>
			<circle fill="#83A050" cx="662.969" cy="933.071" r="6.318"/>
		</g>
		<g>
			<circle fill="#83A050" cx="662.969" cy="961.548" r="6.318"/>
		</g>
		<g>
			<circle fill="#83A050" cx="662.969" cy="990.025" r="6.318"/>
		</g>
		<g>
			<path fill="#83A050" d="M662.969,1012.184c-3.49,0-6.318,2.829-6.318,6.318c0,0.192,0.039,0.374,0.056,0.562
				c4.141-0.647,8.268-1.337,12.366-2.11C668.381,1014.218,665.921,1012.184,662.969,1012.184z"/>
		</g>
		<g>
			<circle fill="#83A050" cx="634.492" cy="933.071" r="6.318"/>
		</g>
		<g>
			<circle fill="#83A050" cx="634.492" cy="961.548" r="6.318"/>
		</g>
		<g>
			<circle fill="#83A050" cx="634.492" cy="990.025" r="6.318"/>
		</g>
		<g>
			<path fill="#83A050" d="M640.811,1018.502c0-3.49-2.829-6.318-6.319-6.318s-6.318,2.829-6.318,6.318
				c0,1.469,0.521,2.804,1.362,3.877c3.541-0.306,7.067-0.658,10.582-1.057C640.546,1020.47,640.811,1019.521,640.811,1018.502z"/>
		</g>
		<g>
			<path fill="#83A050" d="M606.015,939.39c3.49,0,6.319-2.829,6.319-6.318c0-1.577-0.6-3.001-1.556-4.108
				c-3.582,0.813-7.178,1.577-10.785,2.291c-0.174,0.579-0.297,1.181-0.297,1.817C599.696,936.561,602.525,939.39,606.015,939.39z"
				/>
		</g>
		<g>
			<circle fill="#83A050" cx="606.015" cy="961.548" r="6.319"/>
		</g>
		<g>
			<circle fill="#83A050" cx="606.015" cy="990.025" r="6.319"/>
		</g>
		<g>
			<path fill="#83A050" d="M612.334,1018.502c0-3.49-2.829-6.318-6.319-6.318s-6.319,2.829-6.319,6.318
				c0,2.208,1.138,4.146,2.853,5.276c2.392-0.046,4.784-0.088,7.167-0.176C611.295,1022.454,612.334,1020.605,612.334,1018.502z"/>
		</g>
		<g>
			<path fill="#83A050" d="M577.538,939.39c3.128,0,5.708-2.279,6.213-5.264c-3.959,0.612-7.926,1.159-11.904,1.647
				C572.863,937.905,575.019,939.39,577.538,939.39z"/>
		</g>
		<g>
			<circle fill="#83A050" cx="577.537" cy="961.548" r="6.318"/>
		</g>
		<g>
			<circle fill="#83A050" cx="577.537" cy="990.025" r="6.318"/>
		</g>
		<g>
			<path fill="#83A050" d="M583.855,1018.502c0-3.49-2.828-6.318-6.318-6.318s-6.319,2.829-6.319,6.318
				c0,1.927,0.882,3.631,2.242,4.79c2.574,0.135,5.154,0.253,7.741,0.339C582.803,1022.486,583.855,1020.622,583.855,1018.502z"/>
		</g>
		<g>
			<path fill="#83A050" d="M553.489,937.572c-2.743,0.201-5.487,0.375-8.233,0.514c1.061,0.807,2.368,1.304,3.805,1.304
				C550.787,939.39,552.349,938.694,553.489,937.572z"/>
		</g>
		<g>
			<circle fill="#83A050" cx="549.06" cy="961.548" r="6.318"/>
		</g>
		<g>
			<circle fill="#83A050" cx="549.06" cy="990.025" r="6.318"/>
		</g>
		<g>
			<path fill="#83A050" d="M555.378,1018.502c0-3.49-2.828-6.318-6.318-6.318s-6.319,2.829-6.319,6.318
				c0,0.721,0.147,1.402,0.369,2.047c3.749,0.483,7.513,0.915,11.294,1.294C555.013,1020.872,555.378,1019.733,555.378,1018.502z"/>
		</g>
		<g>
			<path fill="#83A050" d="M523.705,938.534c-2.153-0.019-4.307-0.058-6.459-0.117c0.971,0.608,2.109,0.973,3.338,0.973
				C521.725,939.39,522.781,939.063,523.705,938.534z"/>
		</g>
		<g>
			<circle fill="#83A050" cx="520.583" cy="961.548" r="6.318"/>
		</g>
		<g>
			<circle fill="#83A050" cx="520.583" cy="990.025" r="6.318"/>
		</g>
		<g>
			<path fill="#83A050" d="M520.584,1012.184c-2.549,0-4.734,1.518-5.732,3.693c3.984,0.807,7.985,1.569,12.013,2.257
				C526.67,1014.819,523.947,1012.184,520.584,1012.184z"/>
		</g>
		<g>
			<path fill="#83A050" d="M492.107,939.39c1.876,0,3.544-0.835,4.702-2.134c-3.391-0.296-6.777-0.65-10.158-1.05
				C487.742,938.099,489.764,939.39,492.107,939.39z"/>
		</g>
		<g>
			<circle fill="#83A050" cx="492.107" cy="961.548" r="6.318"/>
		</g>
		<g>
			<circle fill="#83A050" cx="492.107" cy="990.025" r="6.318"/>
		</g>
		<g>
			<path fill="#83A050" d="M463.63,939.39c3.244,0,5.887-2.455,6.246-5.605c-4.12-0.707-8.226-1.494-12.32-2.364
				c-0.143,0.529-0.245,1.076-0.245,1.65C457.311,936.561,460.14,939.39,463.63,939.39z"/>
		</g>
		<g>
			<circle fill="#83A050" cx="463.63" cy="961.548" r="6.318"/>
		</g>
		<g>
			<circle fill="#83A050" cx="463.63" cy="990.025" r="6.318"/>
		</g>
		<g>
			<circle fill="#83A050" cx="435.153" cy="933.071" r="6.318"/>
		</g>
		<g>
			<circle fill="#83A050" cx="435.153" cy="961.548" r="6.318"/>
		</g>
		<g>
			<path fill="#83A050" d="M435.153,983.707c-2.806,0-5.156,1.84-5.981,4.37c3.794,1.729,7.615,3.405,11.471,5.018
				c0.512-0.912,0.828-1.949,0.828-3.07C441.471,986.536,438.641,983.707,435.153,983.707z"/>
		</g>
		<g>
			<circle fill="#83A050" cx="406.675" cy="933.071" r="6.318"/>
		</g>
		<g>
			<circle fill="#83A050" cx="406.675" cy="961.548" r="6.318"/>
		</g>
		<g>
			<path fill="#83A050" d="M371.88,904.594c0,3.49,2.828,6.318,6.318,6.318c3.118,0,5.694-2.264,6.21-5.234
				c-3.544-1.805-7.065-3.687-10.554-5.653C372.644,901.176,371.88,902.792,371.88,904.594z"/>
		</g>
		<g>
			<circle fill="#83A050" cx="378.198" cy="933.071" r="6.318"/>
		</g>
		<g>
			<path fill="#83A050" d="M378.198,955.23c-1.804,0-3.421,0.766-4.573,1.979c3.438,2.287,6.913,4.52,10.425,6.703
				c0.296-0.731,0.467-1.526,0.467-2.364C384.517,958.059,381.687,955.23,378.198,955.23z"/>
		</g>
		<g>
			<circle fill="#83A050" cx="349.721" cy="904.594" r="6.318"/>
		</g>
		<g>
			<path fill="#83A050" d="M356.04,933.071c0-3.49-2.829-6.318-6.319-6.318c-3.49,0-6.318,2.829-6.318,6.318
				c0,0.806,0.165,1.57,0.44,2.279c1.654,1.335,3.331,2.642,5.006,3.951c0.287,0.04,0.573,0.088,0.872,0.088
				C353.21,939.39,356.04,936.561,356.04,933.071z"/>
		</g>
		<g>
			<circle fill="#83A050" cx="321.244" cy="876.117" r="6.318"/>
		</g>
		<g>
			<circle fill="#83A050" cx="321.244" cy="904.594" r="6.318"/>
		</g>
		<g>
			<circle fill="#83A050" cx="292.767" cy="847.64" r="6.318"/>
		</g>
		<g>
			<circle fill="#83A050" cx="292.767" cy="876.117" r="6.318"/>
		</g>
		<g>
			<path fill="#83A050" d="M257.973,790.686c0,3.49,2.828,6.318,6.318,6.318c0.884,0,1.725-0.184,2.489-0.512
				c-2.206-3.478-4.365-7.035-6.491-10.657C258.885,786.994,257.973,788.725,257.973,790.686z"/>
		</g>
		<g>
			<circle fill="#83A050" cx="264.29" cy="819.163" r="6.318"/>
		</g>
		<g>
			<path fill="#83A050" d="M270.609,847.64c0-3.49-2.829-6.318-6.319-6.318c-1.578,0-3.003,0.599-4.11,1.556
				c2.283,3.488,4.634,6.927,7.023,10.339C269.218,852.161,270.609,850.073,270.609,847.64z"/>
		</g>
		<g>
			<path fill="#83A050" d="M229.496,733.732c0,3.49,2.828,6.318,6.318,6.318c0.493,0,0.967-0.069,1.428-0.176
				c-1.609-3.779-3.184-7.612-4.716-11.514C230.713,729.472,229.496,731.452,229.496,733.732z"/>
		</g>
		<g>
			<circle fill="#83A050" cx="235.814" cy="762.209" r="6.318"/>
		</g>
		<g>
			<path fill="#83A050" d="M242.132,790.686c0-3.489-2.829-6.318-6.319-6.318c-2.506,0-4.653,1.471-5.674,3.587
				c1.331,2.962,2.696,5.904,4.096,8.827c0.507,0.131,1.03,0.223,1.578,0.223C239.303,797.004,242.132,794.175,242.132,790.686z"/>
		</g>
		<g>
			<path fill="#83A050" d="M203.978,625.158c-0.548-3.048-1.079-6.119-1.591-9.218c-0.845,1.074-1.369,2.412-1.369,3.885
				C201.019,622.076,202.204,624.039,203.978,625.158z"/>
		</g>
		<g>
			<path fill="#83A050" d="M201.019,648.301c0,3.489,2.828,6.318,6.318,6.318c0.901,0,1.755-0.195,2.53-0.535
				c-0.911-3.984-1.792-8.01-2.639-12.091C203.789,642.054,201.019,644.849,201.019,648.301z"/>
		</g>
		<g>
			<circle fill="#83A050" cx="207.336" cy="676.778" r="6.318"/>
		</g>
		<g>
			<path fill="#83A050" d="M207.336,711.573c3.49,0,6.318-2.829,6.318-6.318c0-3.49-2.828-6.318-6.318-6.318
				c-1.906,0-3.593,0.861-4.752,2.195c0.639,3.283,1.317,6.551,2.036,9.805C205.446,711.333,206.359,711.573,207.336,711.573z"/>
		</g>
		<g>
			<path fill="#83A050" d="M213.654,733.732c0-3.035-2.141-5.566-4.996-6.175c0.96,3.601,1.966,7.184,3.023,10.744
				C212.892,737.15,213.654,735.534,213.654,733.732z"/>
		</g>
	</g>
	<g>
		<g>
			<path fill="#A2CE63" d="M581.481,391.719c23.685-25.875-24.26-55.586,0.415-89.375c38.781-53.103,100.946,14.467,64.955,60.026"
				/>
		</g>
	</g>
	<g>
		<g>
			<path fill="#122838" d="M998.412,630.204c-1.53,107.855-44.969,208.658-122.316,283.843
				C798.75,989.23,696.755,1029.794,588.9,1028.264c-107.855-1.53-208.659-44.969-283.842-122.316
				c-75.184-77.348-115.747-179.343-114.217-287.197c1.53-107.855,44.969-208.658,122.316-283.842
				c77.346-75.183,179.342-115.747,287.197-114.217c107.855,1.53,208.659,44.969,283.842,122.316
				C959.379,420.354,999.942,522.349,998.412,630.204z M199.687,618.877c-3.088,217.771,171.568,397.453,389.338,400.541
				c217.77,3.088,397.452-171.568,400.541-389.339c3.088-217.77-171.568-397.452-389.339-400.54
				C382.457,226.45,202.775,401.107,199.687,618.877z"/>
			<path fill="#122838" d="M594.786,1033.275c-1.987,0-3.963-0.014-5.956-0.042c-109.182-1.55-211.228-45.524-287.334-123.821
				c-76.109-78.298-117.173-181.549-115.626-290.731c1.55-109.182,45.524-211.228,123.821-287.334
				c78.298-76.109,181.538-117.081,290.731-115.623c109.182,1.547,211.225,45.518,287.337,123.819s117.173,181.549,115.623,290.731
				l-4.969-0.07l4.969,0.07c-1.55,109.182-45.524,211.228-123.821,287.337C802.689,992.331,701.756,1033.275,594.786,1033.275z
				 M594.497,234.47c-101.906,0-198.153,39.105-271.582,110.48c-74.786,72.695-116.783,170.001-118.258,273.998l0,0
				c-3.049,215.032,169.41,392.452,384.438,395.501c103.963,1.508,202.455-37.746,277.241-110.441s116.786-170.004,118.26-274.001
				c1.474-103.994-37.746-202.455-110.441-277.238c-72.695-74.786-170.004-116.786-274.001-118.261
				C598.269,234.481,596.38,234.47,594.497,234.47z"/>
		</g>
	</g>
	<g>
		<g>
			<g>
				<path fill="#DFE9A5" d="M363.062,508.663c44.329-40.044,72.981-33.123,97.308-0.494c24.327,32.629,12.974,106.29-35.139,125.571
					C377.117,653.02,363.062,508.663,363.062,508.663z"/>
			</g>
		</g>
		<g>
			<g>
				<path fill="#52BB7E" d="M353.583,512.737c-26.126,18.291-33.563,96.212,4.993,125.029c38.555,28.816,74.953,8.356,84.528-15.877
					C452.679,597.656,353.583,512.737,353.583,512.737z"/>
			</g>
		</g>
		<g>
			<g>
				<path fill="#FFFFFF" d="M403.029,484.592c29.249,0.003,52.987,35.711,52.975,79.747c0.006,44.051-23.719,79.757-52.985,79.755
					c-29.266-0.001-52.987-35.711-52.975-79.747C350.038,520.297,373.764,484.59,403.029,484.592z M438.699,571.402
					c-0.002-9.116-7.381-16.506-16.515-16.519c-1.341-0.003-2.63,0.159-3.869,0.467c-6.085-12.356-15.844-20.38-26.843-20.371
					c-18.451,0.011-33.401,22.512-33.401,50.267c0.001,27.772,14.945,50.272,33.398,50.279c17.89-0.016,32.513-21.191,33.353-47.818
					C432.708,586.433,438.704,579.634,438.699,571.402z"/>
			</g>
		</g>
		<g>
			<g>
				<path fill="#FFFFFF" d="M422.184,554.883c9.134,0.013,16.514,7.404,16.515,16.519c0.005,8.233-5.991,15.032-13.878,16.305
					c0.027-0.818,0.055-1.636,0.048-2.45c0.002-11.204-2.429-21.559-6.555-29.907C419.553,555.041,420.842,554.88,422.184,554.883z"
					/>
			</g>
		</g>
		<g>
			<g>
				<path fill="#FFFFFF" d="M418.315,555.349c4.126,8.349,6.557,18.703,6.555,29.907c0.006,0.814-0.021,1.632-0.048,2.45
					c-0.851,0.129-1.742,0.212-2.642,0.211c-9.116,0.002-16.512-7.387-16.515-16.519
					C405.677,563.622,411.075,557.093,418.315,555.349z"/>
			</g>
		</g>
		<g>
			<g>
				<path fill="#122838" d="M422.18,587.917c0.9,0.001,1.79-0.081,2.642-0.211c-0.84,26.627-15.463,47.802-33.353,47.818
					c-18.453-0.006-33.397-22.507-33.398-50.279c0.001-27.755,14.95-50.257,33.401-50.267c10.999-0.009,20.758,8.015,26.843,20.371
					c-7.24,1.744-12.638,8.272-12.65,16.048C405.668,580.53,413.064,587.919,422.18,587.917z"/>
				<path fill="#122838" d="M391.47,640.546c-21.548-0.006-38.421-24.298-38.421-55.3c0-30.991,16.876-55.281,38.421-55.292
					c0.006,0,0.014,0,0.02,0c12.475,0,24.186,8.661,31.333,23.177l2.775,5.634l-6.105,1.469c-5.177,1.247-8.795,5.841-8.807,11.172
					c0.006,6.329,5.157,11.489,11.489,11.489c0.003,0,0.003,0,0.003,0h0.003c0.58,0,1.214-0.053,1.889-0.154l5.962-0.903
					l-0.191,6.026C428.913,617.389,412.06,640.532,391.47,640.546z M391.489,540c-0.006,0-0.008,0-0.014,0
					c-15.385,0.011-28.382,20.73-28.382,45.246c0,24.525,12.994,45.249,28.376,45.255c13.765-0.011,25.677-16.512,27.967-37.735
					c-10.581-1.348-18.79-10.415-18.796-21.366c0.014-7.778,4.126-14.715,10.519-18.507C405.865,544.734,398.754,540,391.489,540z"
					/>
			</g>
		</g>
		<g>
			<g>
				<path fill="#122838" d="M403.021,649.828h-0.001c-16.137-0.001-31.14-9.207-42.243-25.922
					c-10.625-15.994-16.473-37.147-16.468-59.561c-0.003-22.418,5.848-43.575,16.474-59.569
					c11.104-16.714,26.107-25.919,42.244-25.919h0.001c16.132,0.002,31.131,9.208,42.237,25.922
					c10.629,15.996,16.478,37.149,16.473,59.561c0.003,22.42-5.848,43.576-16.474,59.569
					C434.161,640.623,419.159,649.828,403.021,649.828z M403.029,490.326c-12.171-0.001-23.782,7.385-32.693,20.797
					c-9.39,14.134-14.56,33.035-14.556,53.223c-0.007,20.183,5.161,39.081,14.55,53.214c8.91,13.412,20.519,20.799,32.69,20.799
					c12.171,0.001,23.782-7.385,32.693-20.797c9.39-14.134,14.56-33.035,14.556-53.223v-0.001
					c0.007-20.179-5.164-39.076-14.555-53.212C426.802,497.715,415.194,490.327,403.029,490.326z"/>
				<path fill="#122838" d="M403.02,654.852L403.02,654.852c-17.877-0.003-34.366-10.006-46.426-28.166
					c-11.167-16.809-17.313-38.948-17.308-62.341c-0.003-23.393,6.144-45.535,17.313-62.349c12.066-18.16,28.555-28.16,46.429-28.16
					c17.865,0,34.352,10.001,46.424,28.163c11.169,16.811,17.316,38.951,17.31,62.341c0.003,23.395-6.147,45.538-17.313,62.349
					C437.38,644.851,420.894,654.852,403.02,654.852z M403.029,483.881c-14.401,0-27.916,8.409-38.06,23.676
					c-10.085,15.183-15.64,35.349-15.637,56.789c-0.006,21.436,5.547,41.603,15.631,56.78
					c10.141,15.267,23.656,23.678,38.057,23.681c14.398,0,27.916-8.409,38.06-23.678c10.085-15.18,15.64-35.347,15.637-56.788
					c0.006-21.436-5.547-41.6-15.634-56.78C430.937,492.29,417.421,483.881,403.029,483.881z M403.02,643.383
					c-13.911,0-27.005-8.184-36.874-23.042c-9.93-14.948-15.396-34.834-15.39-55.995c-0.003-21.164,5.466-41.053,15.396-56.001
					c9.872-14.858,22.967-23.042,36.877-23.042l0,0c13.902,0.003,26.997,8.187,36.871,23.045
					c9.933,14.953,15.399,34.839,15.393,55.992c0.003,21.161-5.466,41.05-15.396,56.004
					C430.026,635.201,416.928,643.383,403.02,643.383z M403.029,495.347c-10.435,0-20.559,6.59-28.508,18.558
					c-8.849,13.319-13.723,31.232-13.72,50.44c-0.006,19.205,4.866,37.118,13.714,50.434c7.946,11.968,18.07,18.558,28.505,18.558
					s20.559-6.59,28.508-18.555c8.849-13.322,13.723-31.235,13.72-50.443c0.006-19.2-4.866-37.11-13.717-50.432
					C423.579,501.943,413.455,495.35,403.029,495.347L403.029,495.347z"/>
			</g>
		</g>
	</g>
	<g>
		<g>
			<g>
				<path fill="#DFE9A5" d="M553.201,514.207c44.329-40.044,72.981-33.123,97.308-0.494c24.327,32.629,12.974,106.29-35.139,125.571
					C567.256,658.564,553.201,514.207,553.201,514.207z"/>
			</g>
		</g>
		<g>
			<g>
				<path fill="#52BB7E" d="M543.722,518.281c-26.126,18.291-33.563,96.212,4.993,125.029c38.555,28.816,74.953,8.356,84.528-15.877
					S543.722,518.281,543.722,518.281z"/>
			</g>
		</g>
		<g>
			<g>
				<path fill="#FFFFFF" d="M593.168,490.136c29.249,0.003,52.987,35.711,52.975,79.747c0.006,44.051-23.719,79.757-52.985,79.755
					c-29.266-0.001-52.987-35.711-52.975-79.747C540.177,525.841,563.902,490.135,593.168,490.136z M628.838,576.946
					c-0.002-9.116-7.381-16.506-16.515-16.519c-1.341-0.003-2.63,0.159-3.869,0.467c-6.085-12.356-15.844-20.38-26.843-20.371
					c-18.451,0.011-33.401,22.513-33.401,50.267c0.001,27.772,14.945,50.272,33.398,50.279c17.89-0.016,32.513-21.191,33.353-47.818
					C622.847,591.978,628.843,585.179,628.838,576.946z"/>
			</g>
		</g>
		<g>
			<g>
				<path fill="#FFFFFF" d="M612.323,560.427c9.134,0.013,16.514,7.404,16.515,16.519c0.005,8.233-5.991,15.032-13.878,16.305
					c0.027-0.818,0.055-1.636,0.048-2.45c0.002-11.204-2.429-21.559-6.555-29.907C609.692,560.585,610.981,560.424,612.323,560.427z
					"/>
			</g>
		</g>
		<g>
			<g>
				<path fill="#FFFFFF" d="M608.454,560.894c4.126,8.349,6.557,18.703,6.555,29.907c0.006,0.814-0.021,1.632-0.048,2.45
					c-0.851,0.129-1.742,0.212-2.642,0.211c-9.116,0.002-16.512-7.387-16.515-16.519
					C595.816,569.166,601.213,562.638,608.454,560.894z"/>
			</g>
		</g>
		<g>
			<g>
				<path fill="#122838" d="M612.319,593.462c0.9,0.001,1.79-0.082,2.642-0.211c-0.84,26.627-15.463,47.802-33.353,47.818
					c-18.453-0.006-33.397-22.507-33.398-50.279c0.001-27.755,14.95-50.257,33.401-50.267c10.999-0.009,20.758,8.015,26.843,20.371
					c-7.24,1.744-12.638,8.272-12.65,16.048C595.807,586.075,603.203,593.463,612.319,593.462z"/>
				<path fill="#122838" d="M581.609,646.09c-21.545-0.006-38.421-24.298-38.424-55.3c0.003-30.994,16.879-55.281,38.421-55.289
					c0.008,0,0.02,0,0.028,0c12.473,0,24.18,8.661,31.325,23.177l2.772,5.631l-6.102,1.469c-5.174,1.247-8.793,5.841-8.804,11.172
					c0.003,3.066,1.197,5.953,3.369,8.125c2.169,2.169,5.051,3.363,8.117,3.363c0.003,0,0.003,0,0.003,0h0.02
					c0.462,0.045,1.177-0.048,1.875-0.154l5.962-0.903l-0.191,6.029C619.05,622.933,602.193,646.076,581.609,646.09z
					 M581.632,545.546c-0.006,0-0.011,0-0.017,0c-15.385,0.008-28.382,20.727-28.384,45.244c0.003,24.525,13,45.249,28.379,45.255
					c13.759-0.011,25.671-16.512,27.967-37.732c-4.714-0.594-9.07-2.719-12.484-6.133c-4.07-4.067-6.312-9.479-6.312-15.236
					c0.014-7.778,4.126-14.715,10.519-18.507C596.005,550.278,588.897,545.546,581.632,545.546z"/>
			</g>
		</g>
		<g>
			<g>
				<path fill="#122838" d="M593.16,655.373h-0.001c-16.137-0.001-31.14-9.207-42.243-25.922
					c-10.625-15.995-16.473-37.147-16.468-59.561c-0.003-22.418,5.848-43.575,16.474-59.569
					c11.104-16.714,26.107-25.919,42.244-25.919h0.001c16.132,0.002,31.131,9.208,42.237,25.922
					c10.629,15.996,16.478,37.149,16.473,59.561c0.003,22.42-5.848,43.576-16.474,59.569
					C624.3,646.167,609.297,655.373,593.16,655.373z M593.168,495.87c-12.171-0.001-23.782,7.385-32.693,20.797
					c-9.39,14.134-14.56,33.035-14.556,53.223c-0.007,20.183,5.161,39.081,14.55,53.214c8.91,13.412,20.519,20.799,32.691,20.799
					c12.171,0.001,23.782-7.385,32.693-20.797c9.39-14.134,14.56-33.035,14.556-53.223v-0.002
					c0.007-20.178-5.164-39.076-14.555-53.211C616.941,503.259,605.333,495.872,593.168,495.87z"/>
				<path fill="#122838" d="M593.16,660.396c-17.874,0-34.363-10.003-46.429-28.166c-11.167-16.812-17.31-38.951-17.305-62.341
					c-0.003-23.398,6.147-45.541,17.313-62.349c12.063-18.16,28.553-28.16,46.426-28.16c17.868,0,34.354,10.001,46.424,28.163
					c11.167,16.811,17.316,38.951,17.313,62.341c0.003,23.395-6.147,45.538-17.313,62.349
					C627.523,650.395,611.034,660.396,593.16,660.396z M593.168,489.425c-14.404,0-27.919,8.409-38.06,23.676
					c-10.085,15.177-15.64,35.347-15.637,56.789c-0.006,21.436,5.547,41.6,15.629,56.78c10.143,15.27,23.662,23.681,38.06,23.681
					c14.401,0,27.916-8.409,38.06-23.678c10.085-15.18,15.64-35.347,15.637-56.789c0.003-21.433-5.552-41.6-15.637-56.78
					C621.076,497.834,607.561,489.425,593.168,489.425z M593.16,648.927c-13.908,0-27.005-8.182-36.877-23.042
					c-9.93-14.95-15.393-34.837-15.388-55.995c-0.003-21.167,5.466-41.056,15.396-56.001c9.872-14.858,22.967-23.039,36.869-23.039
					c0.006,0,0.006,0,0.008,0c13.902,0,26.997,8.182,36.869,23.042c9.936,14.953,15.402,34.839,15.393,55.992
					c0.006,21.159-5.46,41.05-15.393,56.004C620.165,640.745,607.068,648.927,593.16,648.927z M593.163,500.894
					c-10.432,0-20.553,6.589-28.502,18.555c-8.849,13.314-13.723,31.227-13.72,50.44c-0.006,19.205,4.866,37.115,13.712,50.434
					c7.949,11.965,18.073,18.558,28.508,18.558s20.559-6.589,28.508-18.555c8.851-13.322,13.723-31.235,13.717-50.443
					c0.008-19.2-4.863-37.11-13.717-50.432c-7.949-11.965-18.07-18.558-28.499-18.558l0,0
					C593.165,500.894,593.163,500.894,593.163,500.894z"/>
			</g>
		</g>
	</g>
	<g>
		<g>
			<path fill="#DFE9A5" d="M803.655,305.448c-21.042,28.027-67.544,57.134-18.914,47.262c48.63-9.872,70.69-75.813,45.798-80.967
				C819.059,268.698,803.655,305.448,803.655,305.448z"/>
		</g>
	</g>
	<g>
		<g>
			<path fill="#A2CE63" d="M625.037,415.015c-0.93-36.845-0.034-72.149,20.157-105.103c61.015-99.586-73.292-143.627-93.973-66.286
				c-6.864,25.677,9.249,49.171,8.842,74.468c-0.259,16.163-6.823,31.228-12.605,46.211c-0.761,1.971-2.244,5.603-4.303,10.308"/>
			<path fill="#122838" d="M615.101,415.267c-0.964-38.094-0.034-75.212,21.618-110.55c16.394-26.756,18.771-51.351,6.69-69.25
				c-10.34-15.32-30.658-23.821-49.423-20.679c-9.684,1.626-26.868,7.865-33.163,31.406c-3.302,12.355,0.031,24.906,3.56,38.197
				c2.859,10.757,5.813,21.882,5.62,33.864c-0.263,16.332-5.992,30.985-11.534,45.159l-1.738,4.471
				c-1.023,2.652-2.696,6.66-4.473,10.715l-18.207-7.977c2.464-5.631,3.787-8.994,4.131-9.894l1.771-4.555
				c5.126-13.109,9.967-25.489,10.172-38.239c0.149-9.224-2.332-18.56-4.955-28.443c-4.042-15.219-8.224-30.96-3.551-48.433
				c6.696-25.046,24.587-41.768,49.081-45.877c26.599-4.454,54.406,7.259,69.188,29.164c9.667,14.325,21.716,45.168-6.217,90.759
				c-18.816,30.711-19.581,64.664-18.698,99.658L615.101,415.267z"/>
		</g>
		<g>
			<g>
				<path fill="#DFE9A5" d="M594.876,227.897c-23.542,12.469,13.277,11.711,17.711,14.974c4.435,3.264,20.083,5.726,17.507,29.374
					c-2.576,23.648,24.965,0.034,11.279-28.006S594.876,227.897,594.876,227.897z"/>
			</g>
		</g>
	</g>
	<g>
		<g>
			<path fill="#A2CE63" d="M795.859,831.198c32.091,18.127,61.921,37.029,79.826,71.279
				c54.106,103.502,160.879,10.886,105.141-46.583c-18.506-19.078-46.94-17.32-68.436-30.663
				c-13.735-8.524-23.289-21.894-33.175-34.551c-1.301-1.665-3.655-4.803-6.634-8.986"/>
			<path fill="#122838" d="M938.168,959.126c-17.893,0-48.058-7.601-71.29-52.043c-16.685-31.919-45.426-50.014-75.907-67.229
				l9.776-17.31c33.177,18.74,64.55,38.601,83.749,75.329c14.536,27.807,34.388,42.424,55.981,41.311
				c18.457-1.003,36.19-14.073,43.127-31.784c3.579-9.143,7.052-27.092-9.914-44.585c-8.905-9.182-21.386-12.77-34.604-16.568
				c-10.696-3.072-21.758-6.25-31.938-12.571c-13.883-8.613-23.516-21.061-32.833-33.096l-2.935-3.781
				c-1.738-2.225-4.316-5.715-6.895-9.336l16.189-11.536c3.588,5.037,5.785,7.882,6.374,8.636l2.988,3.851
				c8.619,11.133,16.758,21.646,27.594,28.373c7.84,4.863,17.12,7.531,26.947,10.357c15.138,4.35,30.792,8.846,43.385,21.831
				c18.05,18.611,23.208,42.55,14.152,65.676c-9.835,25.113-34.172,42.951-60.558,44.383
				C940.486,959.092,939.351,959.126,938.168,959.126z"/>
		</g>
		<g>
			<g>
				<path fill="#DFE9A5" d="M971.901,901.43c1.393-26.603-16.867,5.377-21.945,7.505s-15.228,14.29-34.196-0.066
					s-12.852,21.403,18.236,24.063C965.083,935.591,971.901,901.43,971.901,901.43z"/>
			</g>
		</g>
	</g>
	<g>
		<g>
			<path fill="#A2CE63" d="M811.469,407.737c13.454-41.327,28.331-80.223,63.736-108.921
				c106.989-86.721-25.007-188.492-78.409-110.642c-17.728,25.847-9.052,58.302-19.451,86.265
				c-6.643,17.867-19.864,32.034-32.184,46.417c-1.621,1.892-4.698,5.347-8.837,9.768"/>
			<path fill="#122838" d="M820.919,410.814l-18.902-6.155c13.826-42.466,29.351-83.104,66.929-113.563
				c29.321-23.768,41.846-50.827,35.271-76.193c-5.639-21.75-25.472-39.733-48.229-43.727c-11.834-2.074-34.178-1.898-50.998,22.622
				c-8.798,12.829-10.045,28.326-11.366,44.731c-1.045,12.96-2.125,26.364-6.962,39.377c-6.604,17.762-18.636,31.683-30.271,45.145
				l-3.683,4.272c-2.167,2.531-5.58,6.306-9.132,10.096L729.07,323.83c4.981-5.32,7.798-8.568,8.54-9.44l3.739-4.339
				c10.968-12.689,21.324-24.673,26.68-39.074c3.879-10.429,4.801-21.901,5.779-34.046c1.471-18.277,2.993-37.18,14.788-54.378
				c16.884-24.612,42.696-35.885,70.828-30.957c30.652,5.381,56.385,28.819,64.037,58.319c5.006,19.314,6.208,57.551-41.998,96.625
				C848.101,333.581,833.787,371.293,820.919,410.814z"/>
		</g>
		<g>
			<g>
				<path fill="#DFE9A5" d="M851.513,187.853c-31.075,4.605,10.155,18.239,13.802,23.611c3.647,5.372,20.075,14.262,7.913,39.54
					c-12.162,25.278,27.741,9.854,23.552-26.7S851.513,187.853,851.513,187.853z"/>
			</g>
		</g>
	</g>
	<g>
		<g>
			<path fill="#A2CE63" d="M447.729,881.679c-0.945,43.452-3.956,84.987-29.563,122.686
				c-77.385,113.924,78.378,173.238,107.021,83.283c9.508-29.865-8.172-58.432-6.292-88.207c1.2-19.024,9.766-36.406,17.407-53.734
				c1.005-2.28,2.953-6.476,5.639-11.904"/>
			<path fill="#122838" d="M466.426,1141.311c-27.723,0.003-54.541-14.491-68.785-37.897
				c-10.373-17.044-22.566-53.305,12.299-104.636c24.138-35.529,26.947-75.767,27.849-117.316l19.878,0.432
				c-0.973,44.647-4.095,88.037-31.28,128.056c-21.209,31.221-25.385,60.743-11.764,83.13
				c11.679,19.194,35.862,30.677,58.801,27.936c11.923-1.429,33.267-8.053,42.289-36.384c4.72-14.824,1.441-30.018-2.032-46.107
				c-2.744-12.711-5.583-25.853-4.706-39.711c1.191-18.905,8.683-35.7,15.929-51.942l2.301-5.177
				c1.351-3.058,3.526-7.655,5.824-12.299l17.82,8.812c-3.226,6.525-4.992,10.463-5.457,11.514l-2.332,5.247
				c-6.828,15.309-13.28,29.769-14.247,45.098c-0.701,11.105,1.727,22.355,4.3,34.265c3.868,17.924,7.87,36.459,1.542,56.332
				c-9.053,28.438-30.509,46.695-58.865,50.09C472.671,1141.129,469.54,1141.311,466.426,1141.311z"/>
		</g>
		<g>
			<g>
				<path fill="#DFE9A5" d="M472.893,1103.758c28.421-13.383-14.99-14.529-20.033-18.619c-5.043-4.09-23.339-7.857-18.995-35.57
					c4.344-27.713-29.404-1.422-14.837,32.364C433.595,1115.719,472.893,1103.758,472.893,1103.758z"/>
			</g>
		</g>
	</g>
	<g>
		<g>
			<path fill="#A2CE63" d="M826.976,618.466c29.301-9.663,57.809-17.49,89.105-9.286c94.573,24.792,97.358-93.497,30.374-91.35
				c-22.238,0.714-37.166,19.313-57.536,25.11c-13.015,3.704-26.676,2.09-40.083,1.083c-1.764-0.133-5.033-0.442-9.302-0.953"/>
			<path fill="#122838" d="M830.09,627.905l-6.228-18.88c30.54-10.065,60.766-18.367,94.739-9.462
				c24.755,6.497,44.453,2.637,55.449-10.855c9.39-11.52,11.203-29.147,4.414-42.87c-3.383-6.836-11.764-18.098-30.201-18.098
				c-0.49,0-0.987,0.008-1.488,0.025c-10.272,0.328-19.345,5.928-28.951,11.856c-8.025,4.953-16.321,10.073-26.184,12.879
				c-13.44,3.826-26.722,2.769-39.568,1.746l-3.983-0.314c-2.402-0.179-6.046-0.549-9.74-0.995l2.371-19.738
				c5.065,0.608,8.058,0.849,8.854,0.908l4.075,0.32c11.595,0.925,22.549,1.799,32.547-1.048c7.215-2.052,14-6.242,21.187-10.676
				c10.869-6.707,23.188-14.309,38.752-14.81c22.336-0.726,40.63,9.9,50.146,29.127c10.289,20.797,7.548,46.614-6.822,64.247
				c-9.384,11.517-31.728,29.113-75.898,17.526C884.835,611.259,857.684,618.807,830.09,627.905z"/>
		</g>
		<g>
			<g>
				<path fill="#DFE9A5" d="M969.626,549.006c-15.69-15.848-6.171,13.474-7.713,17.818c-1.542,4.344,0.272,17.48-19.302,21.139
					c-19.575,3.66,6.015,20.014,25.173,2.261S969.626,549.006,969.626,549.006z"/>
			</g>
		</g>
	</g>
	<g>
		<g>
			<path fill="#A2CE63" d="M669.028,930.61c17.981,25.072,33.973,49.937,35.501,82.254c4.616,97.659,118.328,64.953,96.253,1.674
				c-7.33-21.008-29.541-29.692-41.163-47.398c-7.426-11.312-9.97-24.831-13.017-37.926c-0.401-1.723-1.083-4.935-1.871-9.161"/>
			<path fill="#122838" d="M755.307,1084.551c-7.257,0-14.496-1.315-21.29-4.028c-13.796-5.516-37.261-21.576-39.416-67.193
				c-1.404-29.674-16.719-53.321-33.651-76.927l16.156-11.587c18.737,26.123,35.694,52.478,37.351,87.578
				c1.211,25.568,10.777,43.209,26.941,49.666c13.787,5.516,31.162,1.979,42.225-8.605c5.659-5.412,14.194-17.24,7.775-35.644
				c-3.386-9.701-11.444-16.688-19.973-24.082c-7.122-6.177-14.488-12.562-20.116-21.136c-7.666-11.679-10.628-24.668-13.493-37.23
				l-0.894-3.896c-0.535-2.296-1.27-5.88-1.962-9.586l19.541-3.655c0.757,4.044,1.418,7.164,1.783,8.734l0.914,3.983
				c2.587,11.343,5.031,22.058,10.732,30.742c4.115,6.267,10.141,11.492,16.52,17.024c9.65,8.367,20.587,17.851,25.716,32.555
				c7.369,21.117,2.702,41.732-12.801,56.559C785.987,1078.704,770.614,1084.551,755.307,1084.551z"/>
		</g>
		<g>
			<g>
				<path fill="#DFE9A5" d="M777.959,1045.97c10.432-19.71-14.703-1.861-19.309-2.033c-4.606-0.173-16.599,5.486-25.943-12.099
					c-9.344-17.585-17.3,11.724,5.369,24.698C760.745,1069.509,777.959,1045.97,777.959,1045.97z"/>
			</g>
		</g>
	</g>
	<g>
		<g>
			<path fill="#A2CE63" d="M258.87,746.537c-26.118,25.864-52.365,49.349-90.097,57.217
				c-114.023,23.778-54.182,151.408,16.114,113.55c23.337-12.57,29.38-40.332,48.027-57.33
				c11.913-10.862,27.339-16.394,42.171-22.439c1.952-0.795,5.602-2.201,10.426-3.923"/>
			<path fill="#122838" d="M158.688,934.254c-12.711,0-25.057-4.179-35.983-12.473c-21.433-16.273-31.936-44.484-26.134-70.206
				c3.795-16.82,17.958-46.662,70.172-57.551c35.153-7.332,60.328-29.988,85.134-54.552l13.986,14.126
				c-27.003,26.742-54.594,51.446-95.061,59.888c-30.627,6.385-50.101,21.467-54.838,42.463
				c-4.053,17.972,3.661,38.531,18.762,49.994c7.795,5.917,24.065,14.121,45.445,2.609c11.225-6.046,18.059-17.047,25.296-28.69
				c5.858-9.432,11.915-19.18,20.749-27.235c12.044-10.979,26.602-16.839,40.681-22.507l4.434-1.791
				c2.584-1.054,6.637-2.579,10.839-4.078l6.682,18.723c-5.838,2.083-9.14,3.408-10.012,3.764l-4.518,1.825
				c-13.019,5.241-25.315,10.191-34.713,18.757c-6.794,6.194-11.876,14.373-17.257,23.034c-8.291,13.344-16.865,27.143-32.751,35.7
				C179.432,931.532,168.941,934.254,158.688,934.254z"/>
		</g>
		<g>
			<g>
				<path fill="#DFE9A5" d="M143.621,896.36c25.148,8.57-0.573-17.646-1.235-23.097c-0.662-5.451-9.572-18.497,9.36-32.794
					s-17.042-18.15-28.046,10.956C112.695,880.531,143.621,896.36,143.621,896.36z"/>
			</g>
		</g>
	</g>
	<g>
		<g>
			<path fill="#A2CE63" d="M452.137,344.96c-30.235-21.077-58.147-42.712-72.737-78.501
				c-44.088-108.15-159.131-26.033-109.071,36.443c16.621,20.741,45.094,21.676,65.234,36.99
				c12.868,9.783,21.117,23.996,29.763,37.53c1.137,1.781,3.185,5.127,5.756,9.573"/>
			<path fill="#122838" d="M362.48,391.976c-3.117-5.384-5.02-8.4-5.53-9.199l-2.618-4.126
				c-7.526-11.892-14.634-23.129-24.786-30.845c-7.346-5.586-16.335-9.118-25.853-12.859c-14.656-5.76-29.811-11.716-41.121-25.828
				c-16.212-20.234-19.087-44.551-7.887-66.719c12.164-24.074,38.032-39.472,64.482-38.466c17.268,0.698,49.254,9.261,69.438,58.773
				c13.594,33.351,40.498,54.081,69.216,74.102l-11.368,16.307c-31.26-21.789-60.614-44.526-76.257-82.903
				c-11.845-29.06-30.254-45.543-51.83-46.415c-18.502-0.659-37.359,10.592-45.936,27.569c-4.428,8.762-9.583,26.305,5.656,45.319
				c7.997,9.981,20.082,14.732,32.88,19.76c10.359,4.073,21.072,8.282,30.613,15.536c13.002,9.886,21.417,23.182,29.55,36.042
				l2.573,4.05c1.505,2.354,3.742,6.071,5.981,9.942L362.48,391.976z"/>
		</g>
		<g>
			<g>
				<path fill="#DFE9A5" d="M283.517,258.413c-3.9,26.353,17.3-3.759,22.556-5.399c5.256-1.64,16.51-12.788,34.037,3.296
					s14.816-20.093-15.881-25.678S283.517,258.413,283.517,258.413z"/>
			</g>
		</g>
	</g>
	<g>
		<path fill="#122838" d="M545.704,481.877l131.046-47.176c11.564-4.163,21.763,8.802,14.983,19.053
			c-24.409,36.902-74.667,89.567-147.539,51.504C534.304,500.09,535.204,485.657,545.704,481.877z"/>
	</g>
	<g>
		<path fill="#122838" d="M470.783,473.691l-131.046-47.176c-11.564-4.163-21.763,8.802-14.983,19.053
			c24.409,36.902,74.667,89.567,147.539,51.504C482.184,491.904,481.283,477.471,470.783,473.691z"/>
	</g>
	<g>
		<path fill="#122838" d="M482.297,738.077c23.025-14.984,57.555-30.108,85.686-24.577c9.459,1.86,32.31,15.967,16.23,25.837
			c-4.462,2.739-9.979,2.876-15.208,3.155c-23.878,1.273-47.487,7.223-69.152,17.333c-3.429,1.6-45.704,18.63-45.737,20.916
			C454.373,762.814,467.293,747.841,482.297,738.077z"/>
	</g>
</g>
</svg>
